<?xml version="1.0" encoding="utf-8"?>
<!-- Generator: Adobe Illustrator 24.3.0, SVG Export Plug-In . SVG Version: 6.00 Build 0)  -->
<svg version="1.1" id="Calque_1" xmlns="http://www.w3.org/2000/svg" xmlns:xlink="http://www.w3.org/1999/xlink" x="0px" y="0px"
	 viewBox="0 0 1003 722" style="enable-background:new 0 0 1003 722;" xml:space="preserve">
<style type="text/css">
	.st0{fill:none;stroke:#4831D4;stroke-width:2;stroke-miterlimit:50;}
	.st1{fill:#EFEFEF;}
	.st2{fill:#3361C2;}
	.st3{fill:#432FC6;}
	.st4{fill:#C9784B;}
	.st5{fill:none;stroke:#FFFFFF;stroke-width:1.5;stroke-linecap:square;stroke-miterlimit:50;}
	.st6{fill:#3D155F;}
	.st7{fill:#CCF381;}
	.st8{clip-path:url(#SVGID_2_);}
	.st9{clip-path:url(#SVGID_4_);}
	.st10{clip-path:url(#SVGID_6_);}
	.st11{clip-path:url(#SVGID_8_);}
	.st12{clip-path:url(#SVGID_10_);}
	.st13{clip-path:url(#SVGID_12_);}
	.st14{clip-path:url(#SVGID_14_);}
	.st15{clip-path:url(#SVGID_16_);}
	.st16{clip-path:url(#SVGID_18_);}
	.st17{clip-path:url(#SVGID_20_);}
	.st18{clip-path:url(#SVGID_22_);}
	.st19{clip-path:url(#SVGID_24_);}
	.st20{clip-path:url(#SVGID_26_);}
	.st21{clip-path:url(#SVGID_28_);}
	.st22{clip-path:url(#SVGID_30_);}
	.st23{clip-path:url(#SVGID_32_);}
	.st24{clip-path:url(#SVGID_34_);}
	.st25{clip-path:url(#SVGID_36_);}
	.st26{clip-path:url(#SVGID_38_);}
	.st27{clip-path:url(#SVGID_40_);}
	.st28{clip-path:url(#SVGID_42_);}
	.st29{clip-path:url(#SVGID_44_);}
	.st30{clip-path:url(#SVGID_46_);}
	.st31{clip-path:url(#SVGID_48_);}
	.st32{fill:none;stroke:#FFEB5C;stroke-width:2;stroke-miterlimit:50;}
	.st33{fill:#24272D;}
	.st34{fill:#CCF381;stroke:#CCF381;stroke-miterlimit:10;}
	.st35{font-family:'MyriadPro-Regular';}
	.st36{font-size:33.644px;}
	.st37{fill:none;stroke:#252B2D;stroke-width:1.5;stroke-linecap:round;stroke-linejoin:round;stroke-miterlimit:50;}
	.st38{font-size:31.4835px;}
	.st39{fill:none;stroke:#FFEB5C;stroke-width:1.5;stroke-miterlimit:10;}
	.st40{font-size:36.8269px;}
	.st41{font-size:37.1085px;}
	.st42{font-size:37.2702px;}
</style>
<path class="st0" d="M438.8,420.9h-36 M420.8,438.9v-36 M239.2,15.7c0,4.4-3.6,7.9-8,7.8c-4.3,0-7.8-3.5-7.8-7.8
	c0-4.4,3.5-7.9,7.9-7.9S239.2,11.3,239.2,15.7L239.2,15.7L239.2,15.7z M267.3,15.7c0,4.4-3.5,7.9-7.9,7.9s-7.9-3.5-7.9-7.9l0,0
	c0-4.4,3.5-7.9,7.9-7.9C263.7,7.8,267.2,11.4,267.3,15.7z M295.3,15.7c0,4.4-3.6,7.9-8,7.8c-4.3,0-7.8-3.5-7.8-7.8
	c0-4.4,3.5-7.9,7.9-7.9S295.3,11.3,295.3,15.7L295.3,15.7z M323.4,15.7c0,4.4-3.5,7.9-7.9,7.9s-7.9-3.5-7.9-7.9s3.5-7.9,7.9-7.9
	S323.4,11.4,323.4,15.7z M351.5,15.7c0,4.4-3.6,7.9-8,7.8c-4.3,0-7.8-3.5-7.8-7.8c0-4.4,3.5-7.9,7.9-7.9S351.5,11.4,351.5,15.7z
	 M684.4,712.7c0,4.4-3.5,7.9-7.9,7.9s-7.9-3.5-7.9-7.9l0,0c0-4.4,3.5-7.9,7.9-7.9C680.9,704.9,684.4,708.4,684.4,712.7z
	 M712.5,712.7c0,4.4-3.5,7.9-7.9,7.9s-7.9-3.5-7.9-7.9l0,0c0-4.4,3.5-7.9,7.9-7.9S712.5,708.4,712.5,712.7L712.5,712.7z
	 M740.5,712.7c0,4.4-3.5,7.9-7.9,7.9s-7.9-3.5-7.9-7.9l0,0c0-4.4,3.5-7.9,7.9-7.9C737,704.9,740.5,708.4,740.5,712.7z M768.6,712.7
	c0,4.4-3.5,7.9-7.9,7.9s-7.9-3.5-7.9-7.9l0,0c0-4.4,3.5-7.9,7.9-7.9S768.6,708.4,768.6,712.7L768.6,712.7z M796.7,712.7
	c0,4.4-3.5,7.9-7.9,7.9s-7.9-3.5-7.9-7.9l0,0c0-4.4,3.5-7.9,7.9-7.9C793.1,704.9,796.7,708.4,796.7,712.7z M717,298.8L717,298.8
	l22.3,0.6l0,0l-0.6-22.3l0,0l22.3,0.6l0,0l-0.6-22.3l0,0l22.3,0.6l0,0l-0.6-22.3l0,0l22.3,0.6l0,0l-0.6-22.3l0,0"/>
<path class="st1" d="M937.7,205.7c0,15.7-12.7,28.4-28.4,28.4s-28.4-12.7-28.4-28.4s12.7-28.4,28.4-28.4S937.7,190,937.7,205.7z
	 M929,156.5h-39.5V-0.1H929V156.5z M396.2,406c0,15.7-12.7,28.4-28.4,28.4s-28.4-12.7-28.4-28.4s12.7-28.4,28.4-28.4
	S396.2,390.3,396.2,406z M387.5,356.8H348V200.2h39.5V356.8z M80,531.8c-50.7,0-82.1-55.2-56.2-98.8c25.3-42.6,87-42.6,112.3,0
	C162.1,476.6,130.7,531.8,80,531.8z M571.8,179.7c-50.7,0-82.1-55.2-56.2-98.8c25.3-42.6,87-42.6,112.3,0
	C653.9,124.5,622.5,179.7,571.8,179.7z M937.1,579c-50.7,0-82.1-55.2-56.2-98.8c25.3-42.6,87-42.6,112.3,0
	C1019.2,523.8,987.8,579,937.1,579z M162.4,215.5c0,15.7-12.7,28.4-28.4,28.4s-28.4-12.7-28.4-28.4s12.7-28.4,28.4-28.4
	S162.4,199.8,162.4,215.5z M153.6,166.3h-39.5V9.7h39.5V166.3z"/>
<path class="st2" d="M601.1,80.6l0.1,5.2"/>
<path class="st3" d="M740.6,59.6v164H601.2V26H707L740.6,59.6z"/>
<path class="st4" d="M601.1,127.7l-26.3,1.1c0,0,11-54,26.2-59.9l0.1,29.9c5.3-4.4,10.9-8.4,12.9-7.3
	C617.8,93.6,601.1,127.7,601.1,127.7z"/>
<path class="st5" d="M601,68.9c0,0-13.5,1.4-26.2,59.2"/>
<path class="st6" d="M708.7,606l-0.6,34.4c-0.1,7.6,7.1,13.3,14.5,11.4l78.2-20.2c6.3-1.6,6.3-10.6,0-12.3l-36.2-9.5L708.7,606
	L708.7,606z M795.5,276.3l23.6,1.7c7.6,0.6,13.7-6.3,12.2-13.8l-13.8-69.6c-1.3-6.3-10-7-12.2-0.9l-16.6,47L795.5,276.3L795.5,276.3
	z M463.3,361.7l12.3,42.8l68.5-18.9l18.1,55.5l-106.9,44.4c-20.3,8.4-43.2-3.7-47.7-25.1c-11.4-55-19.3-149.5,55-165.6
	c19.6-4.3,70.1-85.1,70.1-85.1L546,131l58.2-5.9l-6.9,96.6c-0.7,10.3-4.3,20.2-10.4,28.6l-48.8,67.4l43.8,74.2l-112.4,64
	L463.3,361.7L463.3,361.7z"/>
<path class="st7" d="M571.8,427.2c1.1-1.1,13.9-74,22-120.9c4.1-23.6,21.4-42.6,44.5-48.8l146.4-39.4l23.6,73.2L677,335.9l-8,94.3
	L571.8,427.2z"/>
<path class="st7" d="M472.1,436.9l5.3,12.1c11.2,25.5,37.3,41.1,65,38.8l92.9-7.6L693,628.4c0,0,86.7-21.5,84.2-24.8
	c-1.8-2.4-41.6-111.1-65.4-176.3c-10.2-28-38.6-45.2-68.1-41.3l-131.8,17.4L472.1,436.9L472.1,436.9z"/>
<path class="st6" d="M481.1,474.8l81.1-33.7l-16.4-50.5L457,412.1L481.1,474.8z"/>
<g>
	<defs>
		<path id="SVGID_1_" d="M546.1,131l-13.3,78.6c0,0-50.5,80.8-70.1,85.1c-74.3,16.1-66.5,110.6-55,165.6
			c4.5,21.5,27.4,33.6,47.7,25.1l25.8-10.7l81-33.7l-10.4-32l30.2-17.2l-43.8-74.2l48.8-67.4c6.1-8.4,9.7-18.3,10.4-28.6l6.9-96.6
			L546.1,131L546.1,131z"/>
	</defs>
	<clipPath id="SVGID_2_">
		<use xlink:href="#SVGID_1_"  style="overflow:visible;"/>
	</clipPath>
	<g class="st8">
		<path class="st3" d="M460.1,398.6c-0.7,9.2-8.8,16-18,15.3s-16-8.8-15.3-18s8.8-16,18-15.3S460.8,389.4,460.1,398.6z"/>
	</g>
</g>
<g>
	<defs>
		<path id="SVGID_3_" d="M546.1,131l-13.3,78.6c0,0-50.5,80.8-70.1,85.1c-74.3,16.1-66.5,110.6-55,165.6
			c4.5,21.5,27.4,33.6,47.7,25.1l25.8-10.7l81-33.7l-10.4-32l30.2-17.2l-43.8-74.2l48.8-67.4c6.1-8.4,9.7-18.3,10.4-28.6l6.9-96.6
			L546.1,131L546.1,131z"/>
	</defs>
	<clipPath id="SVGID_4_">
		<use xlink:href="#SVGID_3_"  style="overflow:visible;"/>
	</clipPath>
	<g class="st9">
		<path class="st3" d="M527.2,404c-0.7,9.2-8.8,16-18,15.3s-16-8.8-15.3-18s8.8-16,18-15.3C521.1,386.8,528,394.8,527.2,404z"/>
	</g>
</g>
<g>
	<defs>
		<path id="SVGID_5_" d="M546.1,131l-13.3,78.6c0,0-50.5,80.8-70.1,85.1c-74.3,16.1-66.5,110.6-55,165.6
			c4.5,21.5,27.4,33.6,47.7,25.1l25.8-10.7l81-33.7l-10.4-32l30.2-17.2l-43.8-74.2l48.8-67.4c6.1-8.4,9.7-18.3,10.4-28.6l6.9-96.6
			L546.1,131L546.1,131z"/>
	</defs>
	<clipPath id="SVGID_6_">
		<use xlink:href="#SVGID_5_"  style="overflow:visible;"/>
	</clipPath>
	<g class="st10">
		<path class="st3" d="M594.4,409.5c-0.7,9.2-8.8,16-18,15.3s-16-8.8-15.3-18s8.8-16,18-15.3S595.1,400.3,594.4,409.5z"/>
	</g>
</g>
<g>
	<defs>
		<path id="SVGID_7_" d="M546.1,131l-13.3,78.6c0,0-50.5,80.8-70.1,85.1c-74.3,16.1-66.5,110.6-55,165.6
			c4.5,21.5,27.4,33.6,47.7,25.1l25.8-10.7l81-33.7l-10.4-32l30.2-17.2l-43.8-74.2l48.8-67.4c6.1-8.4,9.7-18.3,10.4-28.6l6.9-96.6
			L546.1,131L546.1,131z"/>
	</defs>
	<clipPath id="SVGID_8_">
		<use xlink:href="#SVGID_7_"  style="overflow:visible;"/>
	</clipPath>
	<g class="st11">
		<path class="st3" d="M497.4,354.9c-0.7,9.2-8.8,16-18,15.3s-16-8.8-15.3-18s8.8-16,18-15.3S498.2,345.7,497.4,354.9z"/>
	</g>
</g>
<g>
	<defs>
		<path id="SVGID_9_" d="M546.1,131l-13.3,78.6c0,0-50.5,80.8-70.1,85.1c-74.3,16.1-66.5,110.6-55,165.6
			c4.5,21.5,27.4,33.6,47.7,25.1l25.8-10.7l81-33.7l-10.4-32l30.2-17.2l-43.8-74.2l48.8-67.4c6.1-8.4,9.7-18.3,10.4-28.6l6.9-96.6
			L546.1,131L546.1,131z"/>
	</defs>
	<clipPath id="SVGID_10_">
		<use xlink:href="#SVGID_9_"  style="overflow:visible;"/>
	</clipPath>
	<g class="st12">
		<path class="st3" d="M564.6,360.3c-0.7,9.2-8.8,16-18,15.3s-16-8.8-15.3-18s8.8-16,18-15.3C558.5,343.1,565.3,351.1,564.6,360.3z"
			/>
	</g>
</g>
<g>
	<defs>
		<path id="SVGID_11_" d="M546.1,131l-13.3,78.6c0,0-50.5,80.8-70.1,85.1c-74.3,16.1-66.5,110.6-55,165.6
			c4.5,21.5,27.4,33.6,47.7,25.1l25.8-10.7l81-33.7l-10.4-32l30.2-17.2l-43.8-74.2l48.8-67.4c6.1-8.4,9.7-18.3,10.4-28.6l6.9-96.6
			L546.1,131L546.1,131z"/>
	</defs>
	<clipPath id="SVGID_12_">
		<use xlink:href="#SVGID_11_"  style="overflow:visible;"/>
	</clipPath>
	<g class="st13">
		<path class="st3" d="M631.7,365.8c-0.7,9.2-8.8,16-18,15.3s-16-8.8-15.3-18s8.8-16,18-15.3C625.6,348.6,632.5,356.6,631.7,365.8z"
			/>
	</g>
</g>
<g>
	<defs>
		<path id="SVGID_13_" d="M546.1,131l-13.3,78.6c0,0-50.5,80.8-70.1,85.1c-74.3,16.1-66.5,110.6-55,165.6
			c4.5,21.5,27.4,33.6,47.7,25.1l25.8-10.7l81-33.7l-10.4-32l30.2-17.2l-43.8-74.2l48.8-67.4c6.1-8.4,9.7-18.3,10.4-28.6l6.9-96.6
			L546.1,131L546.1,131z"/>
	</defs>
	<clipPath id="SVGID_14_">
		<use xlink:href="#SVGID_13_"  style="overflow:visible;"/>
	</clipPath>
	<g class="st14">
		<path class="st3" d="M430.3,349.4c-0.7,9.2-8.8,16-18,15.3s-16-8.8-15.3-18s8.8-16,18-15.3C424.2,332.2,431,340.2,430.3,349.4z"/>
	</g>
</g>
<g>
	<defs>
		<path id="SVGID_15_" d="M546.1,131l-13.3,78.6c0,0-50.5,80.8-70.1,85.1c-74.3,16.1-66.5,110.6-55,165.6
			c4.5,21.5,27.4,33.6,47.7,25.1l25.8-10.7l81-33.7l-10.4-32l30.2-17.2l-43.8-74.2l48.8-67.4c6.1-8.4,9.7-18.3,10.4-28.6l6.9-96.6
			L546.1,131L546.1,131z"/>
	</defs>
	<clipPath id="SVGID_16_">
		<use xlink:href="#SVGID_15_"  style="overflow:visible;"/>
	</clipPath>
	<g class="st15">
		<path class="st3" d="M489.7,447.7c-0.7,9.2-8.8,16-18,15.3s-16-8.8-15.3-18s8.8-16,18-15.3C483.6,430.5,490.5,438.5,489.7,447.7z"
			/>
	</g>
</g>
<g>
	<defs>
		<path id="SVGID_17_" d="M546.1,131l-13.3,78.6c0,0-50.5,80.8-70.1,85.1c-74.3,16.1-66.5,110.6-55,165.6
			c4.5,21.5,27.4,33.6,47.7,25.1l25.8-10.7l81-33.7l-10.4-32l30.2-17.2l-43.8-74.2l48.8-67.4c6.1-8.4,9.7-18.3,10.4-28.6l6.9-96.6
			L546.1,131L546.1,131z"/>
	</defs>
	<clipPath id="SVGID_18_">
		<use xlink:href="#SVGID_17_"  style="overflow:visible;"/>
	</clipPath>
	<g class="st16">
		<path class="st3" d="M556.9,453.2c-0.7,9.2-8.8,16-18,15.3s-16-8.8-15.3-18s8.8-16,18-15.3S557.6,444,556.9,453.2z"/>
	</g>
</g>
<g>
	<defs>
		<path id="SVGID_19_" d="M546.1,131l-13.3,78.6c0,0-50.5,80.8-70.1,85.1c-74.3,16.1-66.5,110.6-55,165.6
			c4.5,21.5,27.4,33.6,47.7,25.1l25.8-10.7l81-33.7l-10.4-32l30.2-17.2l-43.8-74.2l48.8-67.4c6.1-8.4,9.7-18.3,10.4-28.6l6.9-96.6
			L546.1,131L546.1,131z"/>
	</defs>
	<clipPath id="SVGID_20_">
		<use xlink:href="#SVGID_19_"  style="overflow:visible;"/>
	</clipPath>
	<g class="st17">
		<path class="st3" d="M624,458.6c-0.7,9.2-8.8,16-18,15.3s-16-8.8-15.3-18s8.8-16,18-15.3C617.9,441.4,624.8,449.4,624,458.6z"/>
	</g>
</g>
<g>
	<defs>
		<path id="SVGID_21_" d="M546.1,131l-13.3,78.6c0,0-50.5,80.8-70.1,85.1c-74.3,16.1-66.5,110.6-55,165.6
			c4.5,21.5,27.4,33.6,47.7,25.1l25.8-10.7l81-33.7l-10.4-32l30.2-17.2l-43.8-74.2l48.8-67.4c6.1-8.4,9.7-18.3,10.4-28.6l6.9-96.6
			L546.1,131L546.1,131z"/>
	</defs>
	<clipPath id="SVGID_22_">
		<use xlink:href="#SVGID_21_"  style="overflow:visible;"/>
	</clipPath>
	<g class="st18">
		<path class="st3" d="M422.5,442.2c-0.7,9.2-8.8,16-18,15.3s-16-8.8-15.3-18s8.8-16,18-15.3C416.5,425,423.3,433,422.5,442.2z"/>
	</g>
</g>
<g>
	<defs>
		<path id="SVGID_23_" d="M546.1,131l-13.3,78.6c0,0-50.5,80.8-70.1,85.1c-74.3,16.1-66.5,110.6-55,165.6
			c4.5,21.5,27.4,33.6,47.7,25.1l25.8-10.7l81-33.7l-10.4-32l30.2-17.2l-43.8-74.2l48.8-67.4c6.1-8.4,9.7-18.3,10.4-28.6l6.9-96.6
			L546.1,131L546.1,131z"/>
	</defs>
	<clipPath id="SVGID_24_">
		<use xlink:href="#SVGID_23_"  style="overflow:visible;"/>
	</clipPath>
	<g class="st19">
		<path class="st3" d="M475.4,212.9c-0.7,9.2-8.8,16-18,15.3s-16-8.8-15.3-18s8.8-16,18-15.3C469.3,195.7,476.1,203.7,475.4,212.9z"
			/>
	</g>
</g>
<g>
	<defs>
		<path id="SVGID_25_" d="M546.1,131l-13.3,78.6c0,0-50.5,80.8-70.1,85.1c-74.3,16.1-66.5,110.6-55,165.6
			c4.5,21.5,27.4,33.6,47.7,25.1l25.8-10.7l81-33.7l-10.4-32l30.2-17.2l-43.8-74.2l48.8-67.4c6.1-8.4,9.7-18.3,10.4-28.6l6.9-96.6
			L546.1,131L546.1,131z"/>
	</defs>
	<clipPath id="SVGID_26_">
		<use xlink:href="#SVGID_25_"  style="overflow:visible;"/>
	</clipPath>
	<g class="st20">
		<path class="st3" d="M542.6,218.4c-0.7,9.2-8.8,16-18,15.3s-16-8.8-15.3-18s8.8-16,18-15.3S543.3,209.2,542.6,218.4z"/>
	</g>
</g>
<g>
	<defs>
		<path id="SVGID_27_" d="M546.1,131l-13.3,78.6c0,0-50.5,80.8-70.1,85.1c-74.3,16.1-66.5,110.6-55,165.6
			c4.5,21.5,27.4,33.6,47.7,25.1l25.8-10.7l81-33.7l-10.4-32l30.2-17.2l-43.8-74.2l48.8-67.4c6.1-8.4,9.7-18.3,10.4-28.6l6.9-96.6
			L546.1,131L546.1,131z"/>
	</defs>
	<clipPath id="SVGID_28_">
		<use xlink:href="#SVGID_27_"  style="overflow:visible;"/>
	</clipPath>
	<g class="st21">
		<path class="st3" d="M609.7,223.8c-0.7,9.2-8.8,16-18,15.3s-16-8.8-15.3-18s8.8-16,18-15.3C603.6,206.6,610.5,214.6,609.7,223.8z"
			/>
	</g>
</g>
<g>
	<defs>
		<path id="SVGID_29_" d="M546.1,131l-13.3,78.6c0,0-50.5,80.8-70.1,85.1c-74.3,16.1-66.5,110.6-55,165.6
			c4.5,21.5,27.4,33.6,47.7,25.1l25.8-10.7l81-33.7l-10.4-32l30.2-17.2l-43.8-74.2l48.8-67.4c6.1-8.4,9.7-18.3,10.4-28.6l6.9-96.6
			L546.1,131L546.1,131z"/>
	</defs>
	<clipPath id="SVGID_30_">
		<use xlink:href="#SVGID_29_"  style="overflow:visible;"/>
	</clipPath>
	<g class="st22">
		<path class="st3" d="M408.2,207.4c-0.7,9.2-8.8,16-18,15.3s-16-8.8-15.3-18s8.8-16,18-15.3S409,198.3,408.2,207.4z"/>
	</g>
</g>
<g>
	<defs>
		<path id="SVGID_31_" d="M546.1,131l-13.3,78.6c0,0-50.5,80.8-70.1,85.1c-74.3,16.1-66.5,110.6-55,165.6
			c4.5,21.5,27.4,33.6,47.7,25.1l25.8-10.7l81-33.7l-10.4-32l30.2-17.2l-43.8-74.2l48.8-67.4c6.1-8.4,9.7-18.3,10.4-28.6l6.9-96.6
			L546.1,131L546.1,131z"/>
	</defs>
	<clipPath id="SVGID_32_">
		<use xlink:href="#SVGID_31_"  style="overflow:visible;"/>
	</clipPath>
	<g class="st23">
		<path class="st3" d="M505,262c-0.7,9.2-8.8,16-18,15.3s-16-8.8-15.3-18c0.7-9.2,8.8-16,18-15.3S505.8,252.9,505,262z"/>
	</g>
</g>
<g>
	<defs>
		<path id="SVGID_33_" d="M546.1,131l-13.3,78.6c0,0-50.5,80.8-70.1,85.1c-74.3,16.1-66.5,110.6-55,165.6
			c4.5,21.5,27.4,33.6,47.7,25.1l25.8-10.7l81-33.7l-10.4-32l30.2-17.2l-43.8-74.2l48.8-67.4c6.1-8.4,9.7-18.3,10.4-28.6l6.9-96.6
			L546.1,131L546.1,131z"/>
	</defs>
	<clipPath id="SVGID_34_">
		<use xlink:href="#SVGID_33_"  style="overflow:visible;"/>
	</clipPath>
	<g class="st24">
		<path class="st3" d="M572.2,267.5c-0.7,9.2-8.8,16-18,15.3s-16-8.8-15.3-18c0.7-9.2,8.8-16,18-15.3
			C566.1,250.3,572.9,258.3,572.2,267.5z"/>
	</g>
</g>
<g>
	<defs>
		<path id="SVGID_35_" d="M546.1,131l-13.3,78.6c0,0-50.5,80.8-70.1,85.1c-74.3,16.1-66.5,110.6-55,165.6
			c4.5,21.5,27.4,33.6,47.7,25.1l25.8-10.7l81-33.7l-10.4-32l30.2-17.2l-43.8-74.2l48.8-67.4c6.1-8.4,9.7-18.3,10.4-28.6l6.9-96.6
			L546.1,131L546.1,131z"/>
	</defs>
	<clipPath id="SVGID_36_">
		<use xlink:href="#SVGID_35_"  style="overflow:visible;"/>
	</clipPath>
	<g class="st25">
		<path class="st3" d="M437.9,256.6c-0.7,9.2-8.8,16-18,15.3s-16-8.8-15.3-18c0.7-9.2,8.8-16,18-15.3S438.6,247.4,437.9,256.6
			L437.9,256.6z"/>
	</g>
</g>
<g>
	<defs>
		<path id="SVGID_37_" d="M546.1,131l-13.3,78.6c0,0-50.5,80.8-70.1,85.1c-74.3,16.1-66.5,110.6-55,165.6
			c4.5,21.5,27.4,33.6,47.7,25.1l25.8-10.7l81-33.7l-10.4-32l30.2-17.2l-43.8-74.2l48.8-67.4c6.1-8.4,9.7-18.3,10.4-28.6l6.9-96.6
			L546.1,131L546.1,131z"/>
	</defs>
	<clipPath id="SVGID_38_">
		<use xlink:href="#SVGID_37_"  style="overflow:visible;"/>
	</clipPath>
	<g class="st26">
		<path class="st3" d="M512.8,169.2c-0.7,9.2-8.8,16-18,15.3s-16-8.8-15.3-18s8.8-16,18-15.3C506.7,152,513.6,160,512.8,169.2z"/>
	</g>
</g>
<g>
	<defs>
		<path id="SVGID_39_" d="M546.1,131l-13.3,78.6c0,0-50.5,80.8-70.1,85.1c-74.3,16.1-66.5,110.6-55,165.6
			c4.5,21.5,27.4,33.6,47.7,25.1l25.8-10.7l81-33.7l-10.4-32l30.2-17.2l-43.8-74.2l48.8-67.4c6.1-8.4,9.7-18.3,10.4-28.6l6.9-96.6
			L546.1,131L546.1,131z"/>
	</defs>
	<clipPath id="SVGID_40_">
		<use xlink:href="#SVGID_39_"  style="overflow:visible;"/>
	</clipPath>
	<g class="st27">
		<path class="st3" d="M580,174.7c-0.7,9.2-8.8,16-18,15.3s-16-8.8-15.3-18s8.8-16,18-15.3S580.7,165.5,580,174.7z"/>
	</g>
</g>
<g>
	<defs>
		<path id="SVGID_41_" d="M546.1,131l-13.3,78.6c0,0-50.5,80.8-70.1,85.1c-74.3,16.1-66.5,110.6-55,165.6
			c4.5,21.5,27.4,33.6,47.7,25.1l25.8-10.7l81-33.7l-10.4-32l30.2-17.2l-43.8-74.2l48.8-67.4c6.1-8.4,9.7-18.3,10.4-28.6l6.9-96.6
			L546.1,131L546.1,131z"/>
	</defs>
	<clipPath id="SVGID_42_">
		<use xlink:href="#SVGID_41_"  style="overflow:visible;"/>
	</clipPath>
	<g class="st28">
		<path class="st3" d="M445.7,163.8c-0.7,9.2-8.8,16-18,15.3s-16-8.8-15.3-18s8.8-16,18-15.3S446.4,154.6,445.7,163.8z"/>
	</g>
</g>
<g>
	<defs>
		<path id="SVGID_43_" d="M546.1,131l-13.3,78.6c0,0-50.5,80.8-70.1,85.1c-74.3,16.1-66.5,110.6-55,165.6
			c4.5,21.5,27.4,33.6,47.7,25.1l25.8-10.7l81-33.7l-10.4-32l30.2-17.2l-43.8-74.2l48.8-67.4c6.1-8.4,9.7-18.3,10.4-28.6l6.9-96.6
			L546.1,131L546.1,131z"/>
	</defs>
	<clipPath id="SVGID_44_">
		<use xlink:href="#SVGID_43_"  style="overflow:visible;"/>
	</clipPath>
	<g class="st29">
		<path class="st3" d="M534.9,311.2c-0.7,9.2-8.8,16-18,15.3s-16-8.8-15.3-18s8.8-16,18-15.3C528.8,294,535.7,302,534.9,311.2z"/>
	</g>
</g>
<g>
	<defs>
		<path id="SVGID_45_" d="M546.1,131l-13.3,78.6c0,0-50.5,80.8-70.1,85.1c-74.3,16.1-66.5,110.6-55,165.6
			c4.5,21.5,27.4,33.6,47.7,25.1l25.8-10.7l81-33.7l-10.4-32l30.2-17.2l-43.8-74.2l48.8-67.4c6.1-8.4,9.7-18.3,10.4-28.6l6.9-96.6
			L546.1,131L546.1,131z"/>
	</defs>
	<clipPath id="SVGID_46_">
		<use xlink:href="#SVGID_45_"  style="overflow:visible;"/>
	</clipPath>
	<g class="st30">
		<path class="st3" d="M602.1,316.7c-0.7,9.2-8.8,16-18,15.3s-16-8.8-15.3-18s8.8-16,18-15.3S602.8,307.5,602.1,316.7z"/>
	</g>
</g>
<g>
	<defs>
		<path id="SVGID_47_" d="M546.1,131l-13.3,78.6c0,0-50.5,80.8-70.1,85.1c-74.3,16.1-66.5,110.6-55,165.6
			c4.5,21.5,27.4,33.6,47.7,25.1l25.8-10.7l81-33.7l-10.4-32l30.2-17.2l-43.8-74.2l48.8-67.4c6.1-8.4,9.7-18.3,10.4-28.6l6.9-96.6
			L546.1,131L546.1,131z"/>
	</defs>
	<clipPath id="SVGID_48_">
		<use xlink:href="#SVGID_47_"  style="overflow:visible;"/>
	</clipPath>
	<g class="st31">
		<path class="st3" d="M400.6,300.3c-0.7,9.2-8.8,16-18,15.3s-16-8.8-15.3-18s8.8-16,18-15.3S401.4,291.1,400.6,300.3z"/>
	</g>
</g>
<path class="st6" d="M463,319.3c-0.7,0-1.4,0-2.1-0.1c-9.6-1.1-16.4-9.8-15.3-19.4l7.6-64.6c1.1-9.6,9.8-16.4,19.4-15.3
	c9.6,1.1,16.4,9.8,15.3,19.4l-7.6,64.7C479.2,312.8,471.7,319.3,463,319.3L463,319.3z"/>
<path class="st5" d="M646.1,481L646.1,481l-12.7-1.3l0,0l4.2-16l0,0 M458.7,409.6l11.4-2.9"/>
<path class="st4" d="M554.1,417c0-0.1,23.8-21.8,23.8-21.8l28.2-5.9c0,0-23.2-22.3-58.8,6.3L554.1,417z"/>
<path class="st5" d="M677.9,322.8L677.9,322.8l1.8,14.7l0,0l-18.9-0.3l0,0 M459.8,361.7L459.8,361.7l10.3,45.2l0,0l74.1-21.4l0,0
	l10.4,32l0,0l24.1-23.6l0,0l65.8-8.7l0,0c0,0,19-3,28.4,3"/>
<path class="st3" d="M400.3,311.2v152H93.4V344.8l33.6-33.6L400.3,311.2L400.3,311.2z M998.4,319.3v119.2h-239L725.8,405v-85.6
	L998.4,319.3L998.4,319.3z M331.5,629.5h306.4V488.2h-340v107.6L331.5,629.5L331.5,629.5z M900.8,203H841V102.4h59.8V203z"/>
<path class="st7" d="M333.3,102.2c-16.3,0-26.4-17.7-18-31.7c8.1-13.7,27.9-13.7,36.1,0C359.7,84.5,349.6,102.2,333.3,102.2z"/>
<path class="st3" d="M505.3,151.1c0,7.4-6,13.5-13.5,13.5s-13.5-6-13.5-13.5c0-7.4,6-13.5,13.5-13.5
	C499.3,137.7,505.3,143.7,505.3,151.1z M501.2,127.9h-18.7V53.8h18.7V127.9L501.2,127.9z"/>
<path class="st7" d="M251.5,432.7c0,2.6-2,4.7-4.6,4.7s-4.7-2-4.7-4.6v-0.1c0-2.6,2.2-4.6,4.7-4.6
	C249.4,428.2,251.4,430.2,251.5,432.7z M888.8,144.1c0,2.3-1.9,4.2-4.2,4.2s-4.2-1.9-4.2-4.2s1.9-4.2,4.2-4.2
	S888.8,141.8,888.8,144.1z M887.5,136.8h-5.9v-23.3h5.9V136.8z"/>
<path class="st32" d="M965.4,344.4h14.8 M972.8,337v14.8 M312.6,510.9h16.1 M320.6,502.8v16.1 M107.5,444h15.2 M115.1,436.4v15.2
	 M372.9,330.6h17.7 M381.7,321.8v17.7 M715.4,206.2h12 M721.4,200.2v12 M848,189.6h10.5 M853.3,184.4v10.5"/>
<path class="st3" d="M930,639.3h-85.8v-70.5H930V639.3z"/>
<path class="st3" d="M930,639.3h-85.8v-70.5H930V639.3z"/>
<path class="st32" d="M879.1,604.1h16 M887.1,596.1v16"/>
<path class="st3" d="M335.3,214.3c0,2.9-2.4,5.3-5.3,5.3s-5.3-2.4-5.3-5.3s2.4-5.3,5.3-5.3S335.3,211.4,335.3,214.3z M333.6,205.2
	h-7.3v-29h7.3V205.2z"/>
<path class="st32" d="M405.1,133l14.9,14.9 M420,133l-14.9,14.9"/>
<path class="st33" d="M481.1,297l-11.5-1.4l10.7,8.4L481.1,297z"/>
<path class="st5" d="M575.8,381.5c0,0,18.5-4.9,30.3,7.7"/>
<text transform="matrix(-1.637320e-02 -0.9999 0.9999 -1.637320e-02 672.9002 184.399)" class="st34 st35 st36">ADobe</text>
<path class="st4" d="M473.6,297.3h3.9c19.1-0.2,33.3-18.9,29.5-38.8l-4.4-23.2c-2.9-15.5-15.9-26.5-30.7-26.2
	c-16.9,0.4-30.2,15.3-29.8,33.2l0.5,23.3C443.1,283.3,456.9,297.5,473.6,297.3L473.6,297.3z"/>
<path class="st37" d="M485.8,247.2L485.8,247.2l3.1,12.6c0.8,3.2-1.1,6.5-4.4,7.3l-0.7,0.2l0,0"/>
<path class="st33" d="M455.2,266.4l4.8-35.1l1.1-8.3c2.3,1.9,4.9,3.4,7.7,4.5c10.1,3.9,38.4-1.7,39.9-22.2c1.2-16.7-15-5.2-24-5.1
	c-14.1,0.1-24.9-6.9-42.7,5.8c-21.3,15.2-6.7,44.2-6.7,44.2S444.9,245,455.2,266.4L455.2,266.4z"/>
<path class="st33" d="M469.2,252.7c0.9,1.6,2.9,2.2,4.6,1.3c1.6-0.9,2.2-2.9,1.3-4.6c-0.9-1.6-3-2.1-4.6-1.2
	C468.9,249.2,468.3,251.1,469.2,252.7z M489.8,250.5c0.9,1.6,2.9,2.2,4.6,1.3c1.6-0.9,2.2-2.9,1.3-4.6c-0.9-1.6-3-2.1-4.6-1.2
	C489.5,247,488.9,249,489.8,250.5z"/>
<path class="st37" d="M469.1,273.9c0,0,1,6.9,8.8,7.3"/>
<path class="st4" d="M457.2,278c5.1-4.1,6-11.7,1.9-16.8l-7.2-9c-4.1-5.1-11.7-6-16.8-1.9c-5.1,4.1-6,11.7-1.9,16.8l7.2,9
	C444.5,281.3,452.1,282.1,457.2,278z"/>
<path class="st37" d="M439.2,260.2l7.2,5.9"/>
<path class="st6" d="M127,311.2v33.6H93.4L127,311.2z M331.5,629.5l-33.6-33.6h33.6V629.5z M759.5,405v33.6L725.8,405H759.5z"/>
<g>
	<path class="st6" d="M707,25.9l33.6,33.6H707V25.9z"/>
</g>
<text transform="matrix(1 0 0 1 810.1136 390.5996)" class="st34 st35 st38">React Js</text>
<g>
	<path class="st3" d="M285,277.7h-74.1V171.5l16.9-14.6H285V277.7z"/>
	<path class="st6" d="M227.8,171.5h-16.9l16.9-14.6V171.5z"/>
	<path class="st39" d="M269.9,170.7h8 M273.9,166.7v8"/>
	<text transform="matrix(1.750726e-02 1.0691 -0.9999 1.637277e-02 233.2002 186.5188)" class="st34 st35 st40">CSS</text>
</g>
<text transform="matrix(1 0 0 1 394.5302 563.1775)" class="st34 st35 st41">javascript</text>
<text transform="matrix(1 0 0 1 133.8499 401.05)" class="st34 st35 st42">Figma Disign</text>
</svg>
